<svg width="60" height="60" viewBox="0 0 60 60" fill="none" xmlns="http://www.w3.org/2000/svg">
<path d="M20 58C15.582 58 12 54.418 12 50C12 45.582 15.582 42 20 42H25.714C26.976 42 28 43.024 28 44.286V50C28 54.418 24.418 58 20 58Z" fill="#6563FF"/>
<path d="M40 18H34.286C33.024 18 32 16.976 32 15.714V4.286C32 3.024 33.024 2 34.286 2H40C44.418 2 48 5.582 48 10C48 14.418 44.418 18 40 18Z" fill="#6563FF"/>
<path d="M20 2H25.714C26.976 2 28 3.024 28 4.286V15.714C28 16.976 26.976 18 25.714 18H20C15.582 18 12 14.418 12 10C12 5.582 15.582 2 20 2Z" fill="#6563FF"/>
<path d="M20 22H25.714C26.976 22 28 23.024 28 24.286V35.714C28 36.976 26.976 38 25.714 38H20C15.582 38 12 34.418 12 30C12 25.582 15.582 22 20 22Z" fill="#6563FF"/>
<path d="M40 38C44.4183 38 48 34.4183 48 30C48 25.5817 44.4183 22 40 22C35.5817 22 32 25.5817 32 30C32 34.4183 35.5817 38 40 38Z" fill="#6563FF"/>
</svg>
