<svg width="64" height="64" viewBox="0 0 64 64" fill="none" xmlns="http://www.w3.org/2000/svg">
<path d="M42.6 12C42.286 12 42 12.25 42 12.6V30H46V14.462C46 14.106 45.81 13.778 45.504 13.598L42.9 12.082C42.802 12.026 42.7 12 42.6 12Z" fill="#6563FF"/>
<path d="M30.814 51.354C30.61 51.354 30.406 51.296 30.22 51.198L28.35 50.088C28.068 49.932 28.204 49.874 28.302 49.844C28.672 49.718 28.75 49.688 29.148 49.454C29.186 49.434 29.246 49.444 29.284 49.464L30.724 50.32C30.772 50.35 30.85 50.35 30.9 50.32L36.526 47.068C36.574 47.038 36.614 46.98 36.614 46.912V40.418C36.614 40.35 36.584 40.292 36.526 40.262L30.9 37.02C30.852 36.99 30.784 36.99 30.724 37.02L25.098 40.262C25.04 40.292 25.01 40.36 25.01 40.418V46.912C25.01 46.97 25.048 47.028 25.098 47.058L26.636 47.944C27.474 48.362 27.99 47.866 27.99 47.38V40.964C27.99 40.876 28.058 40.798 28.156 40.798H28.866C28.954 40.798 29.032 40.866 29.032 40.964V47.38C29.032 48.5 28.428 49.132 27.368 49.132C27.046 49.132 26.784 49.132 26.074 48.782L24.594 47.936C24.234 47.724 24 47.334 24 46.916V40.422C24 40.004 24.224 39.604 24.594 39.4L30.22 36.148C30.58 35.944 31.048 35.944 31.398 36.148L37.024 39.4C37.384 39.614 37.618 40.004 37.618 40.422V46.916C37.618 47.334 37.394 47.734 37.024 47.938L31.398 51.19C31.234 51.296 31.028 51.354 30.814 51.354ZM35.36 44.948C35.36 43.732 34.542 43.41 32.81 43.176C31.058 42.942 30.882 42.826 30.882 42.416C30.882 42.076 31.028 41.628 32.322 41.628C33.48 41.628 33.908 41.882 34.084 42.66C34.104 42.738 34.162 42.786 34.24 42.786H34.97C35.018 42.786 35.058 42.766 35.086 42.738C35.116 42.7 35.134 42.66 35.124 42.612C35.008 41.268 34.122 40.646 32.32 40.646C30.714 40.646 29.76 41.328 29.76 42.456C29.76 43.692 30.714 44.024 32.252 44.18C34.092 44.364 34.238 44.628 34.238 44.988C34.238 45.62 33.732 45.884 32.544 45.884C31.054 45.884 30.724 45.514 30.616 44.774C30.606 44.696 30.538 44.638 30.45 44.638H29.72C29.632 44.638 29.554 44.706 29.554 44.804C29.554 45.748 30.07 46.878 32.532 46.878C34.338 46.876 35.36 46.176 35.36 44.948ZM40.666 40.072C40.666 40.666 40.18 41.152 39.586 41.152C38.992 41.152 38.506 40.666 38.506 40.072C38.506 39.458 39.012 38.992 39.586 38.992C40.17 38.982 40.666 39.458 40.666 40.072ZM40.492 40.072C40.492 39.566 40.084 39.166 39.576 39.166C39.08 39.166 38.67 39.566 38.67 40.072C38.67 40.578 39.078 40.988 39.576 40.988C40.082 40.976 40.492 40.568 40.492 40.072ZM40.052 40.674H39.8C39.79 40.616 39.752 40.304 39.752 40.294C39.732 40.226 39.714 40.186 39.626 40.186H39.412V40.672H39.178V39.456H39.596C39.742 39.456 40.024 39.456 40.024 39.778C40.024 40.002 39.878 40.05 39.79 40.08C39.956 40.09 39.966 40.196 39.994 40.352C40.004 40.452 40.024 40.616 40.052 40.674ZM39.78 39.818C39.78 39.652 39.664 39.652 39.604 39.652H39.41V39.992H39.594C39.752 39.994 39.78 39.886 39.78 39.818ZM29.88 33.422L29.842 33.354V33.442L29.88 33.422Z" fill="#6563FF"/>
<path d="M13.498 25.634L7.508 22.144C7.352 22.052 7.176 22.006 7 22.006C6.824 22.006 6.648 22.052 6.492 22.144L0.502 25.634C0.19 25.816 0 26.148 0 26.508V35.434C0 35.87 0.472 36.14 0.848 35.922L3.504 34.376C3.81 34.196 4 33.866 4 33.51V28.226L7 26.478L10 28.226V33.51C10 33.866 10.19 34.194 10.496 34.374L13.152 35.92C13.528 36.14 14 35.87 14 35.434V26.508C14 26.148 13.81 25.816 13.498 25.634Z" fill="#6563FF"/>
<path d="M16 26.502V33.496C16 33.856 16.19 34.188 16.502 34.368L22.492 37.858C22.806 38.04 23.194 38.04 23.508 37.858L29.498 34.368C29.81 34.188 30 33.856 30 33.498V26.504C30 26.144 29.81 25.812 29.498 25.632L23.508 22.142C23.194 21.96 22.806 21.96 22.492 22.142L16.502 25.632C16.19 25.812 16 26.144 16 26.502Z" fill="#6563FF"/>
<path d="M39 26.474L42 28.222V31.778L39 33.526L36 31.778V28.222L39 26.474ZM39 22.004C38.824 22.004 38.648 22.05 38.492 22.142L32.502 25.632C32.19 25.812 32 26.144 32 26.502V33.496C32 33.856 32.19 34.188 32.502 34.368L38.492 37.858C38.648 37.95 38.824 37.996 39 37.996C39.176 37.996 39.352 37.95 39.508 37.858L45.498 34.368C45.81 34.188 46 33.856 46 33.498V26.504C46 26.144 45.808 25.812 45.498 25.632L39.508 22.142C39.352 22.05 39.176 22.004 39 22.004Z" fill="#6563FF"/>
<path d="M58.188 35.452L52 31.81V28.22L55 26.472L58 28.22C58 28.22 58 30.096 58 30.72C58 31.054 58.282 31.104 58.47 30.992C59.226 30.548 61.504 29.226 61.504 29.226C61.81 29.048 62 28.72 62 28.364V26.504C62 26.144 61.81 25.812 61.498 25.632L55.508 22.142C55.35 22.05 55.176 22.004 55 22.004C54.824 22.004 54.648 22.05 54.492 22.142L48.502 25.632C48.19 25.812 48 26.144 48 26.502V33.496C48 33.856 48.19 34.188 48.502 34.368L54.312 37.88C54.624 38.07 55.016 38.072 55.332 37.888L58.188 36.226C58.484 36.056 58.486 35.626 58.188 35.452Z" fill="#6563FF"/>
<path d="M53.286 29.006V31.002L55 32L56.714 31.002V29.006L55 28.008L53.286 29.006Z" fill="#6563FF"/>
</svg>
