<svg width="64" height="64" viewBox="0 0 64 64" fill="none" xmlns="http://www.w3.org/2000/svg">
<g clip-path="url(#clip0)">
<path d="M31.9998 46.7672C48.9823 46.7672 62.7496 39.8858 62.7496 31.397C62.7496 22.9082 48.9823 16.0267 31.9998 16.0267C15.0173 16.0267 1.25 22.9082 1.25 31.397C1.25 39.8858 15.0173 46.7672 31.9998 46.7672Z" fill="#6563FF"/>
<path d="M17.3858 33.3026C18.7822 33.3026 19.8246 33.0486 20.4841 32.548C21.1367 32.0526 21.5874 31.1939 21.8236 29.9962C22.0438 28.8768 21.9599 28.0952 21.5743 27.6734C21.1799 27.2425 20.3274 27.024 19.0404 27.024H16.8089L15.5716 33.3027H17.3856L17.3858 33.3026ZM10.0867 41.0368C9.98314 41.0368 9.88476 40.9911 9.81891 40.9121C9.78634 40.8732 9.76292 40.8276 9.75031 40.7786C9.73771 40.7297 9.73623 40.6786 9.74599 40.629L13.0247 23.9905C13.0401 23.9125 13.0825 23.8422 13.1447 23.7916C13.2069 23.7411 13.2849 23.7134 13.3655 23.7134H20.4319C22.6527 23.7134 24.3057 24.3071 25.3447 25.4814C26.3893 26.6607 26.7119 28.3093 26.3034 30.3811C26.1372 31.2252 25.8513 32.009 25.4539 32.711C25.0557 33.4137 24.5298 34.0638 23.8902 34.6437C23.1245 35.3506 22.2578 35.8632 21.3166 36.1648C20.3904 36.4624 19.2009 36.6134 17.781 36.6134H14.9197L14.1026 40.7599C14.0872 40.8379 14.0448 40.9082 13.9826 40.9588C13.9205 41.0093 13.8424 41.037 13.7618 41.037H10.0867V41.0368Z" fill="white"/>
<path d="M17.0952 27.3664H19.0406C20.5938 27.3664 21.1335 27.7026 21.3168 27.9029C21.621 28.2356 21.6784 28.937 21.4829 29.9312C21.2632 31.0442 20.8561 31.8334 20.2725 32.2766C19.675 32.7302 18.7038 32.9601 17.3859 32.9601H15.9929L17.0951 27.3664H17.0952ZM20.432 23.3709H13.3656C13.2044 23.3709 13.0483 23.4262 12.9239 23.5273C12.7996 23.6284 12.7148 23.7691 12.684 23.9251L9.40532 40.5639C9.38579 40.663 9.38874 40.7652 9.41396 40.8631C9.43917 40.961 9.48603 41.0522 9.55117 41.1301C9.61631 41.2081 9.69812 41.2708 9.79074 41.3139C9.88336 41.357 9.9845 41.3794 10.0869 41.3794H13.7617C13.9228 41.3794 14.079 41.3241 14.2034 41.223C14.3278 41.1219 14.4126 40.9812 14.4434 40.8252L15.2059 36.9558H17.7811C19.2373 36.9558 20.4632 36.7991 21.4246 36.4903C22.413 36.1736 23.3227 35.6364 24.1276 34.894C24.7933 34.2898 25.3428 33.6117 25.7572 32.8783C26.1715 32.1448 26.4713 31.3264 26.6447 30.4465C27.0746 28.2656 26.7253 26.5192 25.6065 25.2562C24.4986 24.0052 22.7577 23.371 20.4322 23.371L20.432 23.3709ZM15.1507 33.6452H17.3859C18.8674 33.6452 19.9711 33.3701 20.6961 32.8194C21.4211 32.2687 21.9104 31.3496 22.1646 30.0617C22.4077 28.8251 22.297 27.9525 21.8324 27.444C21.3679 26.9356 20.4366 26.6814 19.0408 26.6814H16.523L15.1508 33.6451L15.1507 33.6452ZM20.4323 24.0558C22.5581 24.0558 24.1089 24.606 25.0837 25.7065C26.0585 26.807 26.3519 28.3434 25.963 30.3157C25.8029 31.1281 25.5322 31.8709 25.1511 32.544C24.7699 33.2171 24.2712 33.8332 23.6555 34.3916C22.9217 35.0689 22.1065 35.5514 21.2095 35.8391C20.3125 36.1273 19.1702 36.2708 17.7813 36.2708H14.6336L13.7621 40.6944H10.0874L13.3656 24.0558H20.4321" fill="white"/>
<path d="M34.7292 36.6132C34.6255 36.6132 34.5272 36.5675 34.4614 36.4885C34.3955 36.4095 34.3685 36.3059 34.3885 36.2054L35.8387 28.8434C35.9766 28.1432 35.9426 27.6407 35.743 27.4284C35.6207 27.2986 35.2536 27.0809 34.1681 27.0809H31.5405L29.7171 36.3359C29.7017 36.4139 29.6593 36.4843 29.5971 36.5348C29.5349 36.5854 29.4568 36.6131 29.3762 36.6131H25.7304C25.6792 36.6131 25.6286 36.6019 25.5823 36.5804C25.536 36.5588 25.4951 36.5274 25.4625 36.4885C25.4299 36.4495 25.4065 36.4039 25.3939 36.3549C25.3813 36.306 25.3798 36.2549 25.3895 36.2053L28.6682 19.5668C28.6836 19.4887 28.726 19.4184 28.7882 19.3679C28.8504 19.3173 28.9285 19.2897 29.0091 19.2897H32.6549C32.7061 19.2897 32.7567 19.3009 32.803 19.3224C32.8493 19.344 32.8902 19.3753 32.9228 19.4143C32.9554 19.4533 32.9788 19.4989 32.9914 19.5478C33.004 19.5968 33.0055 19.6479 32.9957 19.6975L32.2045 23.7133H35.0312C37.1845 23.7133 38.6446 24.0878 39.4952 24.8581C40.3633 25.644 40.6326 26.9004 40.2993 28.5934L38.7738 36.3361C38.7585 36.4142 38.7161 36.4845 38.6539 36.5351C38.5917 36.5856 38.5136 36.6133 38.433 36.6133H34.7293L34.7292 36.6132Z" fill="white"/>
<path d="M32.6548 18.9472H29.009C28.8478 18.9472 28.6917 19.0025 28.5673 19.1036C28.4429 19.2048 28.3581 19.3454 28.3273 19.5015L25.0486 36.14C25.0291 36.2392 25.0321 36.3414 25.0573 36.4393C25.0825 36.5372 25.1294 36.6284 25.1945 36.7063C25.2597 36.7843 25.3415 36.847 25.4341 36.8901C25.5268 36.9332 25.6279 36.9555 25.7303 36.9555H29.3761C29.5373 36.9555 29.6935 36.9002 29.8179 36.7991C29.9423 36.698 30.0271 36.5574 30.0579 36.4013L31.8267 27.4233H34.1681C35.2518 27.4233 35.4792 27.6517 35.4884 27.6615C35.5541 27.7311 35.6406 28.0542 35.4979 28.7779L34.0476 36.14C34.0281 36.2392 34.0311 36.3414 34.0563 36.4393C34.0815 36.5372 34.1284 36.6284 34.1935 36.7063C34.2587 36.7843 34.3405 36.847 34.4331 36.8901C34.5258 36.9332 34.6269 36.9555 34.7294 36.9555H38.433C38.5942 36.9555 38.7504 36.9002 38.8748 36.7991C38.9991 36.698 39.084 36.5574 39.1147 36.4013L40.6402 28.6585C40.9982 26.8411 40.6919 25.4776 39.7305 24.6059C38.8129 23.7749 37.2759 23.3707 35.0314 23.3707H32.6259L33.3369 19.7628C33.3564 19.6636 33.3535 19.5614 33.3283 19.4635C33.3031 19.3655 33.2562 19.2743 33.191 19.1964C33.1259 19.1184 33.0441 19.0556 32.9514 19.0125C32.8588 18.9695 32.7576 18.9471 32.6552 18.9471L32.6548 18.9472ZM32.6552 19.6321L31.7837 24.0557H35.0316C37.0752 24.0557 38.4848 24.4075 39.2607 25.1103C40.0366 25.813 40.2688 26.9528 39.9588 28.5279L38.4334 36.2706H34.7297L36.1799 28.9088C36.345 28.0713 36.2843 27.5001 35.9977 27.1955C35.7112 26.8909 35.1012 26.7384 34.1685 26.7384H31.2544L29.3764 36.2706H25.7306L29.0092 19.6321H32.6551" fill="white"/>
<path d="M46.0679 33.3026C47.4643 33.3026 48.5067 33.0486 49.1662 32.548C49.8188 32.0526 50.2695 31.1941 50.5058 29.9962C50.7261 28.8768 50.6421 28.0952 50.2564 27.6734C49.8621 27.2425 49.0095 27.024 47.7225 27.024H45.491L44.2538 33.3027H46.0678L46.0679 33.3026ZM38.7691 41.0368C38.6655 41.0368 38.5671 40.9911 38.5013 40.9121C38.4687 40.8732 38.4452 40.8276 38.4326 40.7787C38.42 40.7297 38.4185 40.6786 38.4282 40.629L41.7069 23.9905C41.7223 23.9125 41.7647 23.8421 41.827 23.7916C41.8892 23.741 41.9673 23.7134 42.0479 23.7134H49.1141C51.3352 23.7134 52.988 24.3071 54.0271 25.4814C55.0716 26.6607 55.394 28.3091 54.9858 30.3811C54.8193 31.2252 54.5336 32.009 54.136 32.711C53.7378 33.4137 53.2119 34.0638 52.5723 34.6437C51.8066 35.3506 50.9399 35.8632 49.9987 36.1648C49.0725 36.4624 47.883 36.6134 46.4631 36.6134H43.6015L42.7847 40.7599C42.7693 40.8379 42.7269 40.9083 42.6647 40.9588C42.6024 41.0094 42.5243 41.0371 42.4437 41.037H38.769L38.7691 41.0368Z" fill="white"/>
<path d="M45.7775 27.3664H47.7228C49.276 27.3664 49.8157 27.7026 49.9991 27.9029C50.3035 28.2356 50.3608 28.937 50.1652 29.9311C49.9455 31.0441 49.5382 31.8334 48.9548 32.2766C48.3573 32.7302 47.386 32.9601 46.0682 32.9601H44.6755L45.7776 27.3664H45.7775ZM49.1142 23.3709H42.0479C41.8867 23.3709 41.7305 23.4262 41.6062 23.5273C41.4818 23.6284 41.397 23.7691 41.3663 23.9251L38.0877 40.5639C38.0682 40.663 38.0711 40.7652 38.0963 40.8631C38.1215 40.961 38.1684 41.0522 38.2335 41.1301C38.2987 41.2081 38.3805 41.2708 38.4731 41.3139C38.5657 41.357 38.6669 41.3794 38.7693 41.3794H42.444C42.6052 41.3794 42.7614 41.3241 42.8858 41.223C43.0101 41.1219 43.095 40.9812 43.1257 40.8252L43.8881 36.9558H46.4633C47.9196 36.9558 49.1455 36.7991 50.1068 36.4903C51.0952 36.1736 52.005 35.6364 52.81 34.8937C53.4758 34.2898 54.0239 33.6117 54.4394 32.8783C54.8549 32.1448 55.1536 31.3264 55.3269 30.4465C55.7569 28.2655 55.4076 26.5191 54.2887 25.2561C53.1809 24.0052 51.44 23.371 49.1145 23.371L49.1142 23.3709ZM43.833 33.6452H46.0682C47.5497 33.6452 48.6534 33.3701 49.3784 32.8194C50.1034 32.2687 50.5927 31.3496 50.8469 30.0617C51.0902 28.8251 50.9794 27.9525 50.5147 27.444C50.05 26.9356 49.1189 26.6814 47.723 26.6814H45.2052L43.8331 33.6451L43.833 33.6452ZM49.1146 24.0558C51.2404 24.0558 52.7912 24.606 53.7659 25.7065C54.7407 26.807 55.0341 28.3434 54.6452 30.3157C54.4852 31.1281 54.2144 31.8709 53.8333 32.544C53.4522 33.2171 52.9535 33.8332 52.3377 34.3916C51.6039 35.0689 50.7888 35.5514 49.8918 35.8391C48.9948 36.1273 47.8524 36.2708 46.4636 36.2708H43.3159L42.4444 40.6944H38.7696L42.0483 24.0559H49.1147" fill="white"/>
</g>
<defs>
<clipPath id="clip0">
<rect width="64" height="64" fill="white"/>
</clipPath>
</defs>
</svg>
